<svg width="54px" height="54px" viewBox="0 0 512 512" xmlns="http://www.w3.org/2000/svg"><path d="m151.128906 126.609375-6.023437 6.023437c-2.933594 2.933594-2.933594 7.691407 0 10.628907 2.898437 2.894531 7.734375 2.894531 10.628906 0l6.023437-6.023438 14.769532 14.773438-35.875 50.222656c-5.152344 7.210937-5.832032 16.585937-1.777344 24.460937 4.054688 7.878907 12.078125 12.773438 20.9375 12.773438h32.5625v13.859375c0 4.152344 3.363281 7.515625 7.515625 7.515625s7.515625-3.363281 7.515625-7.515625v-13.859375h97.1875v14.859375c0 4.152344 3.363281 7.515625 7.515625 7.515625s7.515625-3.363281 7.515625-7.515625v-14.859375h32.5625c8.859375 0 16.882812-4.894531 20.9375-12.773438 4.054688-7.878906 3.375-17.25-1.777344-24.460937l-6.972656-9.757813c-2.410156-3.378906-7.105469-4.164062-10.480469-1.746093-3.378906 2.410156-4.160156 7.105469-1.746093 10.480469l6.972656 9.761718c3.957031 5.542969-.148438 13.464844-6.933594 13.464844h-74.242188c1.03125-2.640625 1.601563-5.511719 1.601563-8.515625s-.570313-5.875-1.601563-8.515625h43.09375c5.984376 0 9.605469-7 6.113282-11.882812l-21.972656-30.761719c-2.410157-3.378907-7.105469-4.160157-10.480469-1.746094-3.378907 2.414063-4.160157 7.105469-1.746094 10.484375l13.480469 18.875h-60.40625l37.34375-41.078125h28.738281c.011719 0 .023437-.003906.035156-.003906s.019531.003906.03125.003906c2.761719.023437 5.261719 1.324219 6.863281 3.566406l15.742188 22.035157c1.464844 2.054687 3.777344 3.148437 6.121094 3.148437 1.511718 0 3.035156-.453125 4.359375-1.398437 3.378906-2.414063 4.160156-7.105469 1.746093-10.484376l-15.738281-22.035156c-4.359375-6.105468-11.445312-9.789062-18.953125-9.863281-.023437 0-.046875 0-.074218 0-.019532 0-.042969.003906-.066407.003906-.019531 0-.042969-.003906-.066406-.003906h-96.625c-.355469-.714844-26.09375-26.65625-26.09375-26.65625l6.019531-6.023437c2.9375-2.933594 2.9375-7.691407 0-10.628907-2.933594-2.933593-7.691406-2.933593-10.625 0l-6.023437 6.023438-34.363281-34.363281c-6.058594-6.058594-15.90625-6.054688-21.964844 0l-5.667969 5.667968c-6.054687 6.054688-6.054687 15.90625 0 21.964844zm35.214844 13.960937-13.960938-13.960937 6.378907-6.375 16.5 16.503906c-3.214844.644531-6.25 1.957031-8.917969 3.832031zm78.171875 75.351563c0 4.695313-3.820313 8.515625-8.515625 8.515625h-8.515625v-17.03125h8.515625c4.695312 0 8.515625 3.820312 8.515625 8.515625zm-10.304687-54.894531-10.40625-9.730469h19.253906zm-10.109376 11.121094s-17.625 19.5625-17.9375 20.226562h-20.597656l13.484375-18.878906c2.414063-3.375 1.628907-8.070313-1.746093-10.480469-3.378907-2.414063-8.070313-1.628906-10.484376 1.746094l-21.96875 30.761719c-3.492187 4.882812.128907 11.878906 6.113282 11.878906h41.488281v17.035156h-72.640625c-6.785156 0-10.890625-7.921875-6.929688-13.464844l40.078126-56.113281c1.597656-2.234375 4.1875-3.566406 6.941406-3.566406h21.898437zm-116.707031-91.234376 5.667969-5.667968c.097656-.097656.226562-.148438.355469-.148438.128906 0 .257812.050782.351562.148438l34.363281 34.359375-6.375 6.378906-34.363281-34.363281c-.195312-.195313-.195312-.515625 0-.707032zm0 0"/><path d="m256 135.265625c30.664062 0 55.609375-24.945313 55.609375-55.609375v-14.421875l22.726563 5.679687c3.972656.992188 8.117187-1.492187 9.113281-5.46875 1.003906-4.023437-1.441407-8.105468-5.46875-9.113281l-16.746094-4.183593 19.429687-14.574219c3.320313-2.492188 3.992188-7.203125 1.503907-10.519531-2.488281-3.320313-7.199219-3.996094-10.519531-1.503907l-21.761719 16.320313c-6.132813-24.042969-27.964844-41.871094-53.886719-41.871094-30.664062 0-55.609375 24.945312-55.609375 55.609375v24.046875c0 30.664062 24.945313 55.609375 55.609375 55.609375zm0-15.03125c-19.808594 0-36.335938-14.269531-39.871094-33.0625h79.742188c-3.535156 18.792969-20.0625 33.0625-39.871094 33.0625zm40.578125-57.109375v9.015625h-81.15625v-9.015625zm-40.578125-48.09375c19.808594 0 36.335938 14.265625 39.871094 33.0625h-79.742188c3.535156-18.796875 20.0625-33.0625 39.871094-33.0625zm0 0"/><path d="m424.328125 336.65625c-9.578125 0-18.921875 1.535156-27.890625 4.554688-7.777344-21.335938-28.269531-36.617188-52.265625-36.617188-2.085937 0-4.171875.128906-6.242187.359375-12.605469-32.980469-44.574219-56.46875-81.929688-56.46875-38.429688 0-71.15625 24.851563-82.96875 59.328125-6.847656-2.125-13.964844-3.21875-21.234375-3.21875-31.308594 0-57.96875 20.195312-67.695313 48.238281-1.496093-.089843-2.980468-.144531-4.445312-.144531-43.921875 0-79.65625 35.734375-79.65625 79.65625s35.734375 79.65625 79.65625 79.65625c4.152344 0 7.515625-3.363281 7.515625-7.515625 0-4.148437-3.363281-7.515625-7.515625-7.515625-35.636719 0-64.625-28.988281-64.625-64.625 0-35.632812 28.988281-64.625 64.625-64.625.335938 0 .679688.011719 1.023438.019531-.332032 2.789063-.523438 5.617188-.523438 8.496094 0 39.503906 32.136719 71.640625 71.640625 71.640625 12.59375 0 24.984375-3.316406 35.824219-9.589844 3.59375-2.078125 4.820312-6.675781 2.742187-10.265625-2.078125-3.59375-6.675781-4.820312-10.265625-2.742187-8.5625 4.949218-18.347656 7.566406-28.300781 7.566406-31.214844 0-56.609375-25.394531-56.609375-56.609375s25.394531-56.609375 56.609375-56.609375c6.042969 0 11.949219.953125 17.609375 2.804688-.707031 4.476562-1.078125 9.058593-1.078125 13.726562 0 4.152344 3.363281 7.515625 7.515625 7.515625s7.515625-3.363281 7.515625-7.515625c0-40.054688 32.585937-72.640625 72.640625-72.640625s72.640625 32.585937 72.640625 72.640625c0 4.898438-.488281 9.789062-1.453125 14.535156-.824219 4.070313 1.804688 8.035156 5.871094 8.859375.503906.105469 1.007812.152344 1.5.152344 3.5 0 6.636718-2.457031 7.359375-6.019531 1.164062-5.730469 1.753906-11.628906 1.753906-17.527344 0-5.628906-.539063-11.136719-1.558594-16.472656.683594-.035156 1.371094-.058594 2.058594-.058594 22.375 0 40.578125 18.203125 40.578125 40.578125 0 2.757813-.277344 5.511719-.824219 8.1875-.832031 4.066406 1.789063 8.035156 5.855469 8.867187.511719.105469 1.015625.15625 1.515625.15625 3.496094 0 6.625-2.453124 7.355469-6.011718.75-3.660156 1.128906-7.429688 1.128906-11.199219 0-1.398437-.070312-2.78125-.171875-4.15625 7.917969-2.878906 16.207031-4.359375 24.71875-4.359375 40.058594 0 72.644531 32.585938 72.644531 72.640625s-32.589844 72.640625-72.644531 72.640625c-4.152344 0-7.515625 3.367188-7.515625 7.515625 0 4.152344 3.363281 7.515625 7.515625 7.515625 48.34375 0 87.671875-39.328125 87.671875-87.671875 0-48.339844-39.328125-87.671875-87.671875-87.671875zm0 0"/><path d="m424.828125 260.007812c0 15.191407 12.363281 27.554688 27.554687 27.554688 15.195313 0 27.554688-12.363281 27.554688-27.554688 0-15.191406-12.359375-27.554687-27.554688-27.554687-15.191406 0-27.554687 12.363281-27.554687 27.554687zm40.078125 0c0 6.90625-5.617188 12.523438-12.523438 12.523438s-12.523437-5.617188-12.523437-12.523438 5.617187-12.523437 12.523437-12.523437 12.523438 5.617187 12.523438 12.523437zm0 0"/><path d="m67.632812 135.265625c15.191407 0 27.554688-12.363281 27.554688-27.554687 0-15.191407-12.363281-27.554688-27.554688-27.554688-15.195312 0-27.554687 12.363281-27.554687 27.554688 0 15.191406 12.359375 27.554687 27.554687 27.554687zm0-40.078125c6.90625 0 12.523438 5.617188 12.523438 12.523438s-5.617188 12.523437-12.523438 12.523437-12.523437-5.617187-12.523437-12.523437 5.617187-12.523438 12.523437-12.523438zm0 0"/><path d="m400.28125 143.28125c12.816406 0 24.636719-6.238281 31.96875-16.253906 6.851562 5.265625 15.339844 8.238281 24.140625 8.238281 21.824219 0 39.578125-17.757813 39.578125-39.578125 0-19.429688-14.078125-35.625-32.566406-38.945312-3.34375-22.992188-23.183594-40.710938-47.089844-40.710938-26.242188 0-47.59375 21.351562-47.59375 47.59375 0 4.726562.695312 9.355469 2.023438 13.769531-6.421876 7.207031-10.039063 16.535157-10.039063 26.308594 0 21.820313 17.757813 39.578125 39.578125 39.578125zm-21.816406-50.8125c1.117187 1.457031 2.308594 2.867188 3.601562 4.203125 2.84375 2.949219 7.679688 3.03125 10.625.191406 2.988282-2.882812 3.070313-7.640625.191406-10.625-5.890624-6.101562-9.132812-14.132812-9.132812-22.613281 0-17.957031 14.605469-32.5625 32.5625-32.5625s32.5625 14.605469 32.5625 32.5625c0 4.398438-.859375 8.664062-2.554688 12.671875-1.617187 3.820313.171876 8.230469 3.992188 9.847656 3.820312 1.617188 8.234375-.171875 9.847656-3.992187 1.378906-3.253906 2.363282-6.617188 2.980469-10.0625 10.265625 2.941406 17.796875 12.402344 17.796875 23.597656 0 13.535156-11.007812 24.546875-24.546875 24.546875-7.816406 0-15.238281-3.78125-19.851563-10.121094-1.636718-2.246093-4.386718-3.414062-7.140624-3.015625-2.757813.394532-5.066407 2.28125-6.007813 4.898438-3.492187 9.722656-12.777344 16.253906-23.109375 16.253906-13.535156 0-24.546875-11.011719-24.546875-24.546875 0-3.957031.957031-7.800781 2.730469-11.234375zm0 0"/><path d="m24.046875 272.03125c0 17.402344 14.160156 31.5625 31.5625 31.5625 12.5 0 23.496094-7.433594 28.570313-18.199219 3.632812 1.421875 7.527343 2.167969 11.507812 2.167969 17.402344 0 31.5625-14.160156 31.5625-31.5625 0-11.574219-6.449219-22.105469-16.292969-27.585938.167969-1.476562.261719-2.96875.261719-4.476562 0-21.824219-17.757812-39.578125-39.578125-39.578125-21.824219 0-39.578125 17.753906-39.578125 39.578125 0 7.960938 2.371094 15.371094 6.429688 21.585938-8.773438 5.683593-14.445313 15.554687-14.445313 26.507812zm25.402344-15.339844c6.335937 4.304688 13.972656 6.824219 22.191406 6.824219 4.152344 0 7.515625-3.363281 7.515625-7.515625s-3.363281-7.515625-7.515625-7.515625c-13.539063 0-24.546875-11.011719-24.546875-24.546875s11.007812-24.546875 24.546875-24.546875c13.535156 0 24.546875 11.011719 24.546875 24.546875 0 2.324219-.328125 4.597656-.949219 6.773438-.011719.035156-.023437.070312-.035156.105468-.019531.0625-.027344.125-.042969.1875-1.152344 3.847656-3.242187 7.371094-6.164062 10.292969-2.933594 2.933594-2.933594 7.691406 0 10.625s7.695312 2.9375 10.628906 0c2.613281-2.613281 4.804688-5.53125 6.566406-8.667969 3.71875 3.078125 6.027344 7.730469 6.027344 12.746094 0 9.117188-7.417969 16.535156-16.53125 16.535156-4.101562 0-8.035156-1.515625-11.074219-4.257812-2.128906-1.921875-5.167969-2.46875-7.828125-1.398438-2.664062 1.0625-4.484375 3.554688-4.699218 6.414063-.640626 8.5625-7.878907 15.269531-16.476563 15.269531-9.117187 0-16.53125-7.414062-16.53125-16.53125 0-6.835938 4.214844-12.867188 10.371094-15.339844zm0 0"/></svg>